# xmcd CD database file
#
# Track frame offsets:
#	150
#	21860
#	40830
#	57727
#	93387
#	103947
#	125825
#	140685
#	160030
#	174557
#	187602
#	201745
#
# Disc length: 2868 seconds
#
# Revision: 1
# Processed by: cddbd v1.5.2PL0 Copyright (c) Steve Scherf et al.
# Submitted via: CDex 1.70
#
DISCID=b00b320c
DTITLE=Various Artist - The Best of Jazz - Vol. 1 (20th Century Masters)
DYEAR=2003
DGENRE=Jazz
TTITLE0=Ella Fitzgerald - Mack the Knife
TTITLE1=Dizzy Gillespie - Mantec Theme
TTITLE2=Dinah Washington - All of Me
TTITLE3=Miles Davis - Bye Bye Blackbird
TTITLE4=Louis Armstrong - What a Wonderful World
TTITLE5=Oscar Peterson - Night Train
TTITLE6=Billie Holiday - Lover Man
TTITLE7=John Coltrane (with Duke Ellington) - In a Sentimental Mood
TTITLE8=Thelonious Monk - 'Round Midnight
TTITLE9=Sarah Vaughan - Summertime
TTITLE10=Charlie Parker - April in Paris
TTITLE11=Duke Ellington - Mood Indigo
EXTD=YEAR: 2003
EXTT0=
EXTT1=
EXTT2=
EXTT3=
EXTT4=
EXTT5=
EXTT6=
EXTT7=
EXTT8=
EXTT9=
EXTT10=
EXTT11=
PLAYORDER=
